<svg xmlns="http://www.w3.org/2000/svg" version="1.1"
    xmlns:xlink="http://www.w3.org/1999/xlink"
    xmlns:svgjs="http://svgjs.dev/svgjs" viewBox="0 0 800 800">
    <g transform="matrix(0.6819983600624985,-0.7313537016191705,0.7313537016191705,0.6819983600624985,-69.34082467266762,533.7421366226688)">
        <path d="M643 85.42265319824219L643.5000000319496 85.711327930323V86.28867739448464L643 86.57735212656544L642.4999999680504 86.28867739448464V85.711327930323L643 85.42265319824219Z " stroke-width="0.5" stroke="#06fefa" fill="none" opacity="0.01" transform="matrix(0.19582805575887846,0.9993908270190958,-1.0074480106939947,-0.03489949670250073,322.0179018377827,138.43259208473205)"></path>
        <path d="M624.857149396624 109.62784031459262L629.5714354121494 112.34963064564027V117.79321130773559L624.857149396624 120.51500163878325L620.1428633810983 117.79321130773559V112.34963064564027L624.857149396624 109.62784031459262Z " stroke-width="0.7857142857142857" stroke="#1df8fa" fill="none" opacity="0.019285714285714288" transform="matrix(0.26604545308645705,0.99894334526456,-0.987966849391791,0.04611052609402018,318.92246608494406,113.76779980724939)"></path>
        <path d="M606.7142835344587 133.83304268973214L615.64285553356 138.98794861974665V149.29776047977563L606.7142835344587 154.45266640979017L597.7857115353572 149.29776047977563V138.98794861974665L606.7142835344587 133.83304268973214Z " stroke-width="1.0714285714285714" stroke="#29f2fb" fill="none" opacity="0.028571428571428574" transform="matrix(0.334558081942283,0.9919538429745466,-0.9638139216575786,0.1268208406901964,313.31857394717423,90.24665102405129)"></path>
        <path d="M588.5714329310827 158.03824506487166L601.7142909137598 165.62626659385302V180.80230965181568L588.5714329310827 188.39033118079703L575.4285749484054 180.80230965181568V165.62626659385302L588.5714329310827 158.03824506487166Z " stroke-width="1.3571428571428572" stroke="#32ecfb" fill="none" opacity="0.03785714285714286" transform="matrix(0.4010704914789756,0.9784676244588314,-0.9351235710311468,0.20670511910217446,305.3002349819593,68.0609225815906)"></path>
        <path d="M570.4285670689173 182.24344744001115L587.7857110351705 192.26458456795933V212.3068588238557L570.4285670689173 222.32799595180393L553.0714231026643 212.3068588238557V192.26458456795933L570.4285670689173 182.24344744001115Z " stroke-width="1.6428571428571428" stroke="#39e5fb" fill="none" opacity="0.047142857142857146" transform="matrix(0.4652968523396416,0.9585721807319819,-0.9020479053750035,0.2852423676023702,294.9987905653809,47.387113902427586)"></path>
        <path d="M552.2857164655413 206.4486345563616L573.8571464153703 218.90288728327667V243.81139273710673L552.2857164655413 256.26564546402176L530.7142865157124 243.81139273710673V218.90288728327667L552.2857164655413 206.4486345563616Z " stroke-width="1.9285714285714284" stroke="#40dffc" fill="none" opacity="0.05642857142857143" transform="matrix(0.5269619812483735,0.9323966267631959,-0.8647561655670359,0.36192029551079774,282.57918404282896,28.384824248477457)"></path>
        <path d="M534.142850603376 230.65383693150113L559.9285665367809 245.541205257383V275.3159419091468L534.142850603376 290.20331023502865L508.3571346699713 275.3159419091468V245.541205257383L534.142850603376 230.65383693150113Z " stroke-width="2.2142857142857144" stroke="#46d8fc" fill="none" opacity="0.06571428571428571" transform="matrix(0.5858023269423186,0.9001108707115982,-0.8234340363308166,0.4362386282329674,268.2359045833061,11.195346709580235)"></path>
        <path d="M516 254.85903930664062L546.0000019169806 272.1795232314893V306.8204910811868L516 324.1409750060355L485.99999808301936 306.8204910811868V272.1795232314893L516 254.85903930664062Z " stroke-width="2.5" stroke="#4cd1fd" fill="none" opacity="0.075" transform="matrix(0.6415669141664344,0.8619245204476379,-0.7782829015004493,0.5077123433003544,252.18858885267198,-4.059513691513416)"></path>
        <path d="M497.85713413783486 279.06422642299106L532.0714220383913 298.81782594680664V338.32502499443774L497.85713413783486 358.0786245182533L463.6428462372784 338.32502499443774V298.81782594680664L497.85713413783486 279.06422642299106Z " stroke-width="2.7857142857142856" stroke="#51cafd" fill="none" opacity="0.08428571428571428" transform="matrix(0.6940182425908934,0.8180855343389344,-0.7295190462042456,0.5758748086587728,234.67736573127556,-17.278383965351395)"></path>
        <path d="M479.71428353445873 303.2694287981306L518.1428574185911 325.456143920913V369.8295741664778L479.71428353445873 392.0162892892602L441.28570965032634 369.8295741664778V325.456143920913L479.71428353445873 303.2694287981306Z " stroke-width="3.071428571428571" stroke="#56c2fd" fill="none" opacity="0.09357142857142857" transform="matrix(0.7429331376604325,0.7688786249124607,-0.6773728086303721,0.6402808030713102,215.95804308036645,-28.38102066182114)"></path>
        <path d="M461.5714329310826 327.4746311732701L504.2142927987908 352.0944618950194V401.3341233385179L461.5714329310826 425.9539540602671L418.92857306337436 401.3341233385179V352.0944618950194L461.5714329310826 327.4746311732701Z " stroke-width="3.3571428571428568" stroke="#5abafe" fill="none" opacity="0.10285714285714286" transform="matrix(0.7881035505443222,0.7146234255839573,-0.6220876842072993,0.700509399251922,196.29717266258666,-37.30875656651449)"></path>
        <path d="M443.42856706891746 351.6798182896205L490.2857129202015 378.73276461033663V432.83865725176884L443.42856706891746 459.89160357248494L396.5714212176334 432.83865725176884V378.73276461033663L443.42856706891746 351.6798182896205Z " stroke-width="3.642857142857143" stroke="#5fb2fe" fill="none" opacity="0.11214285714285714" transform="matrix(0.82933730452446,0.655672432159951,-0.5639193851919081,0.7561666912185685,175.96703054982765,-44.024697455794126)"></path>
        <path d="M425.28571646554127 375.8850206647601L476.3571483004012 405.371082584443V464.3432064238089L425.28571646554127 493.82926834349183L374.2142846306814 464.3432064238089V405.371082584443L425.28571646554127 375.8850206647601Z " stroke-width="3.9285714285714284" stroke="#63aafe" fill="none" opacity="0.12142857142857143" transform="matrix(0.8664587853368353,0.592408732258096,-0.5031348588079338,0.8068883483454343,155.24064172844732,-48.513663904889995)"></path>
        <path d="M407.1428506033761 400.09022303989957L462.42856842181186 432.0094005585494V495.8477555958489L407.1428506033761 527.7669331144987L351.85713278494035 495.8477555958489V432.0094005585494L407.1428506033761 400.09022303989957Z " stroke-width="4.2142857142857135" stroke="#67a1ff" fill="none" opacity="0.13071428571428573" transform="matrix(0.8993095731676739,0.5252435371486337,-0.44001126721658806,0.8523419796960392,134.38687855108,-50.781884190945675)"></path>
        <path d="M389 424.29541015625L448.50000380201163 458.6477032738666V527.3522895090999L389 561.7045826267165L329.49999619798837 527.3522895090999V458.6477032738666L389 424.29541015625Z " stroke-width="4.5" stroke="#6b97ff" fill="none" opacity="0.14" transform="matrix(0.9277490141992981,0.45461353178495845,-0.3748349327292297,0.8922292934259592,113.66568276506541,-50.85645224800248)"></path>
    </g>
</svg>