<?xml version="1.0" encoding="UTF-8" standalone="no"?>
<svg
   id="svg213200"
   viewBox="0 0 1024 768"
   height="768px"
   width="1024px"
   version="1.1"
   sodipodi:docname="logo (copy).svg"
   inkscape:version="1.2.2 (732a01da63, 2022-12-09, custom)"
   xmlns:inkscape="http://www.inkscape.org/namespaces/inkscape"
   xmlns:sodipodi="http://sodipodi.sourceforge.net/DTD/sodipodi-0.dtd"
   xmlns:xlink="http://www.w3.org/1999/xlink"
   xmlns="http://www.w3.org/2000/svg"
   xmlns:svg="http://www.w3.org/2000/svg"
   xmlns:rdf="http://www.w3.org/1999/02/22-rdf-syntax-ns#"
   xmlns:cc="http://creativecommons.org/ns#"
   xmlns:dc="http://purl.org/dc/elements/1.1/">
  <sodipodi:namedview
     id="namedview52"
     pagecolor="#ffffff"
     bordercolor="#999999"
     borderopacity="1"
     inkscape:showpageshadow="0"
     inkscape:pageopacity="0"
     inkscape:pagecheckerboard="0"
     inkscape:deskcolor="#d1d1d1"
     showgrid="false"
     inkscape:zoom="1.0520833"
     inkscape:cx="511.84158"
     inkscape:cy="384"
     inkscape:window-width="1870"
     inkscape:window-height="1020"
     inkscape:window-x="50"
     inkscape:window-y="27"
     inkscape:window-maximized="1"
     inkscape:current-layer="svg213200" />
  <metadata
     id="metadata213206">
    <rdf:rdf>
      <cc:work
         rdf:about="">
        <dc:format>image/svg+xml</dc:format>
        <dc:type
           rdf:resource="http://purl.org/dc/dcmitype/StillImage" />
      </cc:work>
    </rdf:rdf>
  </metadata>
  <defs
     id="defs213204" />
  <linearGradient
     spreadMethod="pad"
     y2="30%"
     x2="-10%"
     y1="120%"
     x1="30%"
     id="3d_gradient2-logo-9712e726-b9f7-4e17-8ca2-fc211ea1fa7a">
    <stop
       id="stop213181"
       stop-opacity="1"
       stop-color="#ffffff"
       offset="0%" />
    <stop
       id="stop213183"
       stop-opacity="1"
       stop-color="#000000"
       offset="100%" />
  </linearGradient>
  <linearGradient
     gradientTransform="rotate(-30)"
     spreadMethod="pad"
     y2="30%"
     x2="-10%"
     y1="120%"
     x1="30%"
     id="3d_gradient3-logo-9712e726-b9f7-4e17-8ca2-fc211ea1fa7a">
    <stop
       id="stop213186"
       stop-opacity="1"
       stop-color="#ffffff"
       offset="0%" />
    <stop
       id="stop213188"
       stop-opacity="1"
       stop-color="#cccccc"
       offset="50%" />
    <stop
       id="stop213190"
       stop-opacity="1"
       stop-color="#000000"
       offset="100%" />
  </linearGradient>
  <g
     id="logo-group">
    <image
       xlink:href=""
       id="container"
       x="272"
       y="144"
       width="480"
       height="480"
       style="display: none;"
       transform="translate(0 0)" />
    <g
       id="logo-center"
       transform="translate(3.494659000000013 0)">
      <image
         xlink:href=""
         id="icon_container"
         x="0"
         y="0"
         style="display: none;" />
      <g
         id="slogan"
         style="font-style:normal;font-weight:300;font-size:32px;line-height:1;font-family:'Montserrat Light Alt1';font-variant-ligatures:none;text-align:center;text-anchor:middle"
         transform="translate(0 0)" />
      <g
         id="title"
         style="font-style:normal;font-weight:300;font-size:72px;line-height:1;font-family:'Montserrat Light Alt1';font-variant-ligatures:none;text-align:center;text-anchor:middle"
         transform="translate(0 0)">
        <path
           id="path213209"
           style="font-style:normal;font-weight:300;font-size:72px;line-height:1;font-family:'Montserrat Light Alt1';font-variant-ligatures:none;text-align:center;text-anchor:middle"
           d="m 287.25087,-2.952 c 3.96,2.232 8.424,3.312 13.392,3.312 3.60001,0 6.912,-0.576 10.008,-1.8 3.096,-1.152 5.76001,-2.952 7.92,-5.256 l -2.30399,-2.376 c -4.10401,4.032 -9.288,6.048 -15.48001,6.048 -4.24799,0 -8.064,-0.936 -11.51999,-2.88 -3.45601,-1.872 -6.192,-4.536 -8.13601,-7.92 -2.016,-3.384 -2.952,-7.2 -2.952,-11.376 0,-4.176 0.936,-7.92 2.952,-11.304 1.94401,-3.384 4.68,-6.048 8.13601,-7.992 3.45599,-1.872 7.272,-2.88 11.51999,-2.88 6.26401,0 11.448,2.016 15.48001,5.976 l 2.30399,-2.376 c -2.15999,-2.304 -4.824,-4.032 -7.848,-5.184 -3.096,-1.152 -6.47999,-1.8 -10.08,-1.8 -4.968,0 -9.432,1.152 -13.392,3.312 -3.95999,2.232 -7.05599,5.256 -9.36,9.144 -2.30399,3.888 -3.384,8.28 -3.384,13.104 0,4.896 1.08001,9.216 3.384,13.104 2.30401,3.888 5.40001,6.984 9.36,9.144 z"
           stroke-width="0"
           stroke-linejoin="miter"
           stroke-miterlimit="2"
           fill="#de5764"
           stroke="#de5764"
           transform="translate(0 318.52) translate(50 29.696000000000005) scale(1.4) translate(-274.50687 50.76)" />
        <path
           id="path213211"
           style="font-style:normal;font-weight:300;font-size:72px;line-height:1;font-family:'Montserrat Light Alt1';font-variant-ligatures:none;text-align:center;text-anchor:middle"
           d="m 337.80725,-2.952 c 3.96,2.232 8.424,3.312 13.392,3.312 4.896,0 9.36,-1.08 13.392,-3.312 3.96,-2.16 7.056,-5.256 9.36,-9.144 2.304,-3.888 3.456,-8.208 3.456,-13.104 0,-4.824 -1.152,-9.216 -3.456,-13.104 -2.304,-3.888 -5.4,-6.912 -9.36,-9.144 -4.032,-2.16 -8.496,-3.312 -13.392,-3.312 -4.968,0 -9.432,1.152 -13.392,3.384 -4.032,2.232 -7.128,5.256 -9.432,9.144 -2.304,3.888 -3.384,8.28 -3.384,13.032 0,4.824 1.08,9.144 3.384,13.032 2.304,3.888 5.4,6.984 9.432,9.216 z m 24.84,-2.952 c -3.456,1.944 -7.272,2.88 -11.448,2.88 -4.248,0 -8.064,-0.936 -11.52,-2.88 -3.456,-1.872 -6.12,-4.536 -8.064,-7.92 -2.016,-3.384 -2.952,-7.2 -2.952,-11.376 0,-4.176 0.936,-7.92 2.952,-11.304 1.944,-3.384 4.608,-6.048 8.064,-7.992 3.456,-1.872 7.272,-2.88 11.52,-2.88 4.176,0 7.992,1.008 11.448,2.88 3.384,1.944 6.048,4.608 8.064,7.992 1.944,3.384 2.952,7.128 2.952,11.304 0,4.176 -1.008,7.992 -2.952,11.376 -2.016,3.384 -4.68,6.048 -8.064,7.92 z"
           stroke-width="0"
           stroke-linejoin="miter"
           stroke-miterlimit="2"
           fill="#de5764"
           stroke="#de5764"
           transform="translate(0 318.52) translate(148.67813199999995 29.696000000000005) scale(1.4) translate(-324.99125 50.76)" />
        <path
           id="path213213"
           style="font-style:normal;font-weight:300;font-size:72px;line-height:1;font-family:'Montserrat Light Alt1';font-variant-ligatures:none;text-align:center;text-anchor:middle"
           d="M 390.14337,-50.4 V 0 h 32.688 V -3.312 H 393.81538 V -50.4 Z"
           stroke-width="0"
           stroke-linejoin="miter"
           stroke-miterlimit="2"
           fill="#de5764"
           stroke="#de5764"
           transform="translate(0 318.52) translate(267.8911 30.20000000000001) scale(1.4) translate(-390.14337 50.4)" />
        <path
           id="path213215"
           style="font-style:normal;font-weight:300;font-size:72px;line-height:1;font-family:'Montserrat Light Alt1';font-variant-ligatures:none;text-align:center;text-anchor:middle"
           d="M 432.33087,-50.4 V 0 h 32.688 V -3.312 H 436.00288 V -50.4 Z"
           stroke-width="0"
           stroke-linejoin="miter"
           stroke-miterlimit="2"
           fill="#de5764"
           stroke="#de5764"
           transform="translate(0 318.52) translate(354.9536 30.20000000000001) scale(1.4) translate(-432.33087 50.4)" />
        <path
           id="path213217"
           style="font-style:normal;font-weight:300;font-size:72px;line-height:1;font-family:'Montserrat Light Alt1';font-variant-ligatures:none;text-align:center;text-anchor:middle"
           d="m 507.13437,-27.216 h -32.616 v 3.24 h 32.616 z m 0,-23.184 h -32.616 v 3.312 h 32.616 z m -32.616,47.088 V 0 h 32.616 v -3.312 z"
           stroke-width="0"
           stroke-linejoin="miter"
           stroke-miterlimit="2"
           fill="#de5764"
           stroke="#de5764"
           transform="translate(0 318.52) translate(442.0161 30.20000000000001) scale(1.4) translate(-474.51837 50.4)" />
        <path
           id="path213219"
           style="font-style:normal;font-weight:300;font-size:72px;line-height:1;font-family:'Montserrat Light Alt1';font-variant-ligatures:none;text-align:center;text-anchor:middle"
           d="m 530.3915,-2.952 c 3.96,2.232 8.424,3.312 13.392,3.312 3.6,0 6.912,-0.576 10.008,-1.8 3.096,-1.152 5.76,-2.952 7.92,-5.256 l -2.304,-2.376 c -4.104,4.032 -9.288,6.048 -15.48,6.048 -4.248,0 -8.064,-0.936 -11.52,-2.88 -3.456,-1.872 -6.192,-4.536 -8.136,-7.92 -2.016,-3.384 -2.952,-7.2 -2.952,-11.376 0,-4.176 0.936,-7.92 2.952,-11.304 1.944,-3.384 4.68,-6.048 8.136,-7.992 3.456,-1.872 7.272,-2.88 11.52,-2.88 6.264,0 11.448,2.016 15.48,5.976 l 2.304,-2.376 c -2.16,-2.304 -4.824,-4.032 -7.848,-5.184 -3.096,-1.152 -6.48,-1.8 -10.08,-1.8 -4.968,0 -9.432,1.152 -13.392,3.312 -3.96,2.232 -7.056,5.256 -9.36,9.144 -2.304,3.888 -3.384,8.28 -3.384,13.104 0,4.896 1.08,9.216 3.384,13.104 2.304,3.888 5.4,6.984 9.36,9.144 z"
           stroke-width="0"
           stroke-linejoin="miter"
           stroke-miterlimit="2"
           fill="#de5764"
           stroke="#de5764"
           transform="translate(0 318.52) translate(530.396882 29.696000000000005) scale(1.4) translate(-517.6475 50.76)" />
        <path
           id="path213221"
           style="font-style:normal;font-weight:300;font-size:72px;line-height:1;font-family:'Montserrat Light Alt1';font-variant-ligatures:none;text-align:center;text-anchor:middle"
           d="M 583.02575,-47.088 V 0 h 3.672 v -47.088 h 18.144 V -50.4 h -39.96 v 3.312 z"
           stroke-width="0"
           stroke-linejoin="miter"
           stroke-miterlimit="2"
           fill="#de5764"
           stroke="#de5764"
           transform="translate(0 318.52) translate(624.5248320000001 30.20000000000001) scale(1.4) translate(-564.88175 50.4)" />
        <path
           id="path213223"
           style="font-style:normal;font-weight:300;font-size:72px;line-height:1;font-family:'Montserrat Light Alt1';font-variant-ligatures:none;text-align:center;text-anchor:middle"
           d="m 646.49375,-27.216 h -32.616 v 3.24 h 32.616 z m 0,-23.184 h -32.616 v 3.312 h 32.616 z m -32.616,47.088 V 0 h 32.616 v -3.312 z"
           stroke-width="0"
           stroke-linejoin="miter"
           stroke-miterlimit="2"
           fill="#de5764"
           stroke="#de5764"
           transform="translate(0 318.52) translate(721.1192319999999 30.20000000000001) scale(1.4) translate(-613.87775 50.4)" />
        <path
           id="path213225"
           style="font-style:normal;font-weight:300;font-size:72px;line-height:1;font-family:'Montserrat Light Alt1';font-variant-ligatures:none;text-align:center;text-anchor:middle"
           d="m 694.72812,-27.216 h -32.616 v 3.24 h 32.616 z m 0,-23.184 h -32.616 v 3.312 h 32.616 z m -32.616,47.088 V 0 h 32.616 v -3.312 z"
           stroke-width="0"
           stroke-linejoin="miter"
           stroke-miterlimit="2"
           fill="#de5764"
           stroke="#de5764"
           transform="translate(0 318.52) translate(816.64735 30.20000000000001) scale(1.4) translate(-662.11212 50.4)" />
        <path
           id="path213227"
           style="font-style:normal;font-weight:300;font-size:72px;line-height:1;font-family:'Montserrat Light Alt1';font-variant-ligatures:none;text-align:center;text-anchor:middle"
           d="m 736.9145,-17.64 c 3.744,-1.08 6.696,-2.952 8.712,-5.688 2.016,-2.736 3.096,-6.048 3.096,-10.08 0,-5.256 -1.8,-9.432 -5.4,-12.456 -3.6,-3.024 -8.568,-4.536 -14.904,-4.536 h -18.072 v 3.312 h 18.072 c 5.328,0 9.432,1.224 12.312,3.6 2.808,2.376 4.248,5.76 4.248,10.08 0,4.392 -1.44,7.776 -4.248,10.152 -2.88,2.376 -6.984,3.528 -12.312,3.528 h -18.072 V 0 h 3.672 v -16.488 h 14.4 c 1.44,0 3.096,-0.072 4.896,-0.36 L 745.3385,0 h 4.176 z"
           stroke-width="0"
           stroke-linejoin="miter"
           stroke-miterlimit="2"
           fill="#de5764"
           stroke="#de5764"
           transform="translate(0 318.52) translate(912.175482 30.20000000000001) scale(1.4) translate(-710.3465 50.4)" />
      </g>
    </g>
  </g>
</svg>
