<?xml version="1.0" encoding="utf-8"?>
<!-- Generator: Adobe Illustrator 27.4.1, SVG Export Plug-In . SVG Version: 6.00 Build 0)  -->
<svg version="1.1" id="FINAL" xmlns="http://www.w3.org/2000/svg" xmlns:xlink="http://www.w3.org/1999/xlink" x="0px" y="0px"
	 viewBox="0 0 677.2 134.8" style="enable-background:new 0 0 677.2 134.8;" xml:space="preserve">
<style type="text/css">
	.st0{fill:#FFFFFF;}
	.st1{fill-rule:evenodd;clip-rule:evenodd;fill:#F78E1E;}
</style>
<g>
	<polygon class="st0" points="138.5,10.1 189.4,10.1 215.1,90.9 215.5,90.9 242.4,10.1 291.4,10.1 291.4,131.6 259.8,131.6 
		260.3,38.3 259.9,38.3 229,131.6 199.3,131.6 169.8,38.3 169.4,38.3 170.1,131.6 138.5,131.6 	"/>
	<g>
		<path class="st0" d="M360.4,131.6c-0.2-4.9-0.7-9.6-0.7-14.3h-0.4c-7.1,11.3-15.8,16.4-28.7,16.4c-17.9,0-33.9-8.9-33.9-28.6
			c0-27.7,30.1-31,46.8-31c5,0,10.6,0.5,14.6,1.2c-0.2-12.4-9.4-15.7-20.7-15.7c-10.1,0-20.2,1.9-28.9,6.8L308,45.2
			c11.1-4.5,22.8-6.4,36.1-6.4c23.1,0,43.1,9.9,43.1,37.6v33.8c0,7.1,0.3,14.3,1.7,21.4L360.4,131.6L360.4,131.6z M338.8,112.8
			c11.8,0,19.3-10.8,19.3-21.4c-4-0.2-8.5-0.5-13.2-0.5c-10.6,0-18.9,3.3-18.9,12C326,109.2,331.5,112.8,338.8,112.8"/>
		<path class="st0" d="M461.5,66c-3.5-1.1-7-1.1-10.6-1.1c-14.6,0-22.8,10.6-22.8,28.4v38.3h-31.3V40.9h28.5v16.7h0.3
			c5.4-11.5,13.2-18.8,26.8-18.8c3.7,0,7.5,0.5,10.6,1L461.5,66z"/>
		<polygon class="st0" points="468.8,1 500.1,1 500.1,79 500.5,79 526.5,40.9 560.8,40.9 529.3,82.5 563.4,131.6 525.5,131.6 
			500.5,86.7 500.1,86.7 500.1,131.6 468.8,131.6 		"/>
		<polygon class="st0" points="577.6,10.1 606.8,10.1 589.8,57.3 566,57.3 		"/>
		<path class="st0" d="M602.6,106.6c7.3,3.1,18.1,6.3,29.4,6.3c6.4,0,12.7-1.1,12.7-7.3c0-15.3-44.5-4.5-44.5-37.3
			c0-20.9,20.5-29.4,38.6-29.4c10.8,0,21.7,1.2,31.8,5.2l-2.4,21.8c-6.6-4-16.5-6.1-24.3-6.1c-6.8,0-14.4,1.2-14.4,6.3
			c0,14.1,46.6,3,46.6,37.4c0,24.2-21.7,30.3-42.2,30.3c-14.1,0-23.6-1.4-32.8-4.4L602.6,106.6z"/>
	</g>
</g>
<rect x="1" y="10.1" class="st1" width="121.6" height="121.6"/>
</svg>
