<svg xmlns="http://www.w3.org/2000/svg" version="1.1" xmlns:xlink="http://www.w3.org/1999/xlink" xmlns:svgjs="http://svgjs.dev/svgjs" viewBox="0 0 800 800"><defs><linearGradient x1="50%" y1="0%" x2="50%" y2="100%" id="nnneon-grad"><stop stop-color="hsl(157, 100%, 54%)" stop-opacity="1" offset="0%"></stop><stop stop-color="hsl(331, 87%, 61%)" stop-opacity="1" offset="100%"></stop></linearGradient><filter id="nnneon-filter" x="-100%" y="-100%" width="400%" height="400%" filterUnits="objectBoundingBox" primitiveUnits="userSpaceOnUse" color-interpolation-filters="sRGB">
	<feGaussianBlur stdDeviation="45 31" x="0%" y="0%" width="100%" height="100%" in="SourceGraphic" edgeMode="none" result="blur"></feGaussianBlur></filter><filter id="nnneon-filter2" x="-100%" y="-100%" width="400%" height="400%" filterUnits="objectBoundingBox" primitiveUnits="userSpaceOnUse" color-interpolation-filters="sRGB">
	<feGaussianBlur stdDeviation="10 17" x="0%" y="0%" width="100%" height="100%" in="SourceGraphic" edgeMode="none" result="blur"></feGaussianBlur></filter></defs><g stroke-width="5.5" stroke="url(#nnneon-grad)" fill="none" transform="rotate(120, 400, 400)"><path d="M400 241.80624389648438L537.0000087542116 320.90312048662685V479.09687366691185L400 558.1937502570543L262.9999912457884 479.09687366691185V320.90312048662685L400 241.80624389648438Z " filter="url(#nnneon-filter)"></path><path d="M441 241.80624389648438L578.0000087542116 320.90312048662685V479.09687366691185L441 558.1937502570543L303.9999912457884 479.09687366691185V320.90312048662685L441 241.80624389648438Z " filter="url(#nnneon-filter2)" opacity="0.48"></path><path d="M359 241.80624389648438L496.00000875421165 320.90312048662685V479.09687366691185L359 558.1937502570543L221.9999912457884 479.09687366691185V320.90312048662685L359 241.80624389648438Z " filter="url(#nnneon-filter2)" opacity="0.48"></path><path d="M400 241.80624389648438L537.0000087542116 320.90312048662685V479.09687366691185L400 558.1937502570543L262.9999912457884 479.09687366691185V320.90312048662685L400 241.80624389648438Z "></path></g></svg>