<svg xmlns="http://www.w3.org/2000/svg" viewBox="0 0 133.13 29.71" class="icon-rona">
    <defs></defs>
    <title>logo_rona</title>
    <g id="Layer_2" data-name="Layer 2">
        <g id="Layer_1-2" data-name="Layer 1">
            <path class="cls-1"
                d="M51,14.85c0-4.83-1.05-8-4.73-8s-4.74,3.13-4.74,8,1.06,8,4.74,8,4.73-3.14,4.73-8m-21.13,0c0-3.24.48-6.66,2.59-9.52S38.54,0,46.26,0,57.91,2.37,60.07,5.33s2.58,6.27,2.58,9.52-.48,6.66-2.58,9.53S54,29.71,46.26,29.71s-11.65-2.37-13.81-5.33-2.59-6.29-2.59-9.53m-8.13,2.2,9.21,11.69H18.08L11,18.32V28.74H0V1H11.43L17,1c7.92,0,11.12,4.52,11.12,8.43,0,3.58-3.64,6-6.35,7.64M11,7.07v7.44s2.3-1.15,3.4-1.75,2.49-1.44,2.49-2.79S15.77,7.09,13,7.07ZM86.86,28.74h-.52l-9.89-14v14H65.51V1H76.37L86.3,15.09V1H97.23V28.74ZM121.64,1l11.49,27.79h-3.22L120.06,5l-.64,1.56,9.19,22.23h-3.22l-7.58-18.33L117.16,12l6.93,16.76h-3.22l-5.32-12.87-5.32,12.87H98L109.48,1Z"></path>
        </g>
    </g>
</svg>