<svg xmlns="http://www.w3.org/2000/svg" version="1.1" xmlns:xlink="http://www.w3.org/1999/xlink" xmlns:svgjs="http://svgjs.dev/svgjs" viewBox="0 0 800 800"><defs><filter id="uuunion-blur" x="-100%" y="-100%" width="400%" height="400%" color-interpolation-filters="sRGB">
        <feGaussianBlur in="SourceGraphic" stdDeviation="0 0" result="blur"></feGaussianBlur>
        <feDropShadow stdDeviation="43.07692307692307" in="blur" dx="35" dy="35" flood-color="hsl(186, 100%, 47%)" flood-opacity="0.98" x="0%" y="0%" width="100%" height="100%"></feDropShadow>
      </filter><filter id="uuunion-blur2" x="-100%" y="-100%" width="400%" height="400%" color-interpolation-filters="sRGB">
        <feGaussianBlur in="SourceGraphic" stdDeviation="0 0" result="blur"></feGaussianBlur>
        <feDropShadow stdDeviation="43.07692307692307" in="blur" dx="-35" dy="-35" flood-color="hsl(186, 100%, 47%)" flood-opacity="0.98" x="0%" y="0%" width="100%" height="100%"></feDropShadow>
      </filter><linearGradient gradientTransform="rotate(118, 0.5, 0.5)" x1="50%" y1="0%" x2="50%" y2="100%" id="uuunion-grad"><stop stop-color="hsl(0, 0%, 0%)" offset="10%"></stop><stop stop-color="hsl(186, 100%, 47%)" offset="90%"></stop></linearGradient><linearGradient gradientTransform="rotate(103, 0.5, 0.5)" x1="50%" y1="0%" x2="50%" y2="100%" id="uuunion-grad2"><stop stop-color="hsl(0, 0%, 0%)" offset="25%"></stop><stop stop-color="hsl(186, 100%, 47%)" offset="100%"></stop></linearGradient><linearGradient gradientTransform="rotate(101, 0.5, 0.5)" x1="50%" y1="0%" x2="50%" y2="100%" id="uuunion-grad3"><stop stop-color="hsl(0, 0%, 0%)" offset="0%"></stop><stop stop-color="hsl(186, 100%, 47%)" offset="75%"></stop></linearGradient></defs><path d="M-75.45 -78.77Q-61.49 -77.56 -47.52 -76.5 -33.55 -75.65 -19.58 -75.08 -5.62 -74.81 8.34 -74.87 22.31 -75.24 36.27 -75.91 50.24 -76.83 64.21 -77.95 78.17 -79.2 92.14 -80.49 106.11 -81.76 120.08 -82.91 134.04 -83.89 148.01 -84.62 161.98 -85.06 175.94 -85.19 189.91 -85 203.88 -84.49 217.84 -83.71 231.81 -82.69 245.78 -81.51 259.75 -80.23 273.71 -78.94 287.68 -77.71 301.65 -76.63 315.61 -75.75 329.58 -75.14 343.55 -74.83 357.51 -74.84 371.48 -75.17 385.45 -75.8 399.42 -76.7 413.38 -77.79 427.35 -79.03 441.32 -80.32 455.28 -81.59 469.25 -82.77 483.22 -83.77 497.18 -84.54 511.15 -85.02 525.12 -85.19 539.09 -85.04 553.05 -84.58 567.02 -83.83 580.99 -82.84 594.95 -81.67 608.92 -80.4 622.89 -79.11 636.85 -77.87 650.82 -76.76 664.79 -75.85 678.76 -75.2 692.72 -74.85 706.69 -74.82 720.66 -75.11 734.62 -75.7 748.59 -76.56 762.56 -77.64 776.52 -78.86 790.49 -80.15 804.46 -81.43 818.42 -82.62 824.25 -68.08 833.44 -53.53 845.42 -38.99 859.48 -24.44 874.78 -9.89 890.39 4.64 905.38 19.19 918.84 33.73 929.96 48.28 938.07 62.82 942.7 77.37 943.55 91.91 940.57 106.46 933.95 121 924.09 135.55 911.57 150.1 897.15 164.64 881.7 179.19 866.15 193.73 851.43 208.28 838.43 222.82 827.93 237.37 820.56 251.91 816.77 266.46 816.78 281 820.6 295.55 827.98 310.09 838.5 324.64 851.52 339.19 866.24 353.73 881.8 368.28 897.24 382.82 911.65 397.37 924.16 411.91 934 426.46 940.6 441 943.55 455.55 942.68 470.09 938.04 484.64 929.9 499.18 918.76 513.73 905.29 528.28 890.3 542.82 874.69 557.37 859.39 571.91 845.34 586.46 833.37 601 824.21 615.55 818.4 630.09 816.3 644.64 818.03 659.18 823.49 673.73 832.35 688.28 844.07 702.82 857.96 717.37 873.17 731.91 888.79 746.46 903.89 761 917.54 775.55 928.94 790.09 937.39 804.64 942.39 819.18 943.64 833.73 941.05 848.27 925.03 862.67 909 878.14 892.98 893.73 876.95 908.46 860.93 921.43 844.91 931.82 828.88 938.98 812.86 942.48 796.83 942.09 780.81 937.84 764.78 930 748.76 919.05 732.73 905.66 716.71 890.69 700.69 875.04 684.66 859.71 668.64 845.64 652.61 833.7 636.59 824.64 620.56 819.02 604.54 817.2 588.52 819.28 572.49 825.13 556.47 834.39 540.44 846.49 524.42 860.68 508.39 876.06 492.37 891.69 476.34 906.59 460.32 919.84 444.3 930.61 428.27 938.23 412.25 942.24 396.22 942.37 380.2 938.62 364.17 931.23 348.15 920.66 332.12 907.55 316.1 892.73 300.08 877.12 284.05 861.69 268.03 847.4 252 835.13 235.98 825.65 219.95 819.56 203.93 817.21 187.9 818.78 171.88 824.15 155.86 832.99 139.83 844.75 123.81 858.7 107.78 873.98 91.76 889.64 75.73 904.69 59.71 918.21 43.69 929.35 27.66 937.42 11.64 941.92 -4.38 942.58 -20.4 939.34 -36.43 932.41 -52.45 922.22 -68.48 909.41 -84.5 894.77 -84.69 879.56 -84.6 864.34 -84.23 849.13 -83.61 833.92 -82.77 818.71 -81.76 803.5 -80.64 788.29 -79.49 773.07 -78.37 757.86 -77.34 742.65 -76.48 727.44 -75.83 712.23 -75.42 697.02 -75.3 681.8 -75.45 666.59 -75.88 651.38 -76.56 636.17 -77.44 620.96 -78.48 605.75 -79.6 590.53 -80.76 575.32 -81.86 560.11 -82.86 544.9 -83.68 529.69 -84.28 514.48 -84.62 499.26 -84.68 484.05 -84.47 468.84 -83.98 453.63 -83.25 438.42 -82.33 423.2 -81.27 407.99 -80.13 392.78 -78.98 377.57 -77.89 362.36 -76.93 347.15 -76.16 331.93 -75.61 316.72 -75.33 301.51 -75.33 286.3 -75.61 271.09 -76.15 255.88 -76.93 240.66 -77.89 225.45 -78.97 210.24 -80.12 195.03 -81.26 179.82 -82.32 164.61 -83.25 149.39 -83.98 134.18 -84.46 118.97 -84.68 103.76 -84.62 88.55 -84.28 73.34 -83.68 58.12 -82.86 42.91 -81.87 27.7 -80.76 12.49 -79.61 -2.71 -78.48 -17.92 -77.44 -33.14 -76.56 -48.35 -75.88 -63.56 -75.45 -78.77" fill="url(#uuunion-grad)"></path><path d="M-75.45 -78.77Q-75.88 -63.56 -76.56 -48.35 -77.44 -33.14 -78.48 -17.92 -79.61 -2.71 -80.76 12.49 -81.87 27.7 -82.86 42.91 -83.68 58.12 -84.28 73.34 -84.62 88.55 -84.68 103.76 -84.46 118.97 -83.98 134.18 -83.25 149.39 -82.32 164.61 -81.26 179.82 -80.12 195.03 -78.97 210.24 -77.89 225.45 -76.93 240.66 -76.15 255.88 -75.61 271.09 -75.33 286.3 -75.33 301.51 -75.61 316.72 -76.16 331.93 -76.93 347.15 -77.89 362.36 -78.98 377.57 -80.13 392.78 -81.27 407.99 -71.07 413.36 -60.88 418.37 -50.69 422.86 -40.5 426.72 -30.3 429.83 -20.11 432.12 -1 433.87 2.29 433.98 14.8 426.4 27.12 417.45 39.26 407.28 51.23 396.09 63.01 384.11 74.64 371.6 86.11 358.84 97.46 346.13 108.69 333.74 119.84 321.93 130.92 310.92 141.97 300.89 153.02 292 164.1 284.31 175.23 277.87 186.45 272.65 197.8 268.57 209.29 265.51 220.96 263.31 232.84 261.76 244.96 260.65 257.32 259.74 269.95 258.79 282.88 257.58 296.1 255.9 309.62 253.56 323.45 250.41 337.58 246.34 352.01 241.3 366.73 235.24 381.71 228.21 396.95 220.26 412.4 211.5 428.05 202.06 443.86 192.11 459.79 181.82 475.8 171.39 491.85 160.99 507.89 150.82 523.88 141.02 539.76 131.75 555.5 123.12 571.04 115.19 586.33 108.03 601.33 101.63 616 95.98 630.29 91.01 644.17 86.64 657.61 82.76 670.57 79.24 683.03 75.95 694.98 72.74 706.39 69.48 717.27 66.02 727.62 62.27 737.44 58.12 746.75 53.5 755.56 48.36 763.9 42.68 771.81 36.47 779.33 29.76 786.5 22.59 793.37 15.04 800 7.2 783.58 -11.05 768.51 -29.31 756.02 -47.56 747.11 -65.82 742.53 -84.07 742.65 -102.33 747.46 -120.59 756.55 -138.84 742.44 -138.61 728.33 -138.45 714.22 -138.4 700.11 -138.44 686 -138.57 671.89 -138.8 657.78 -139.09 643.67 -139.45 629.56 -139.83 615.45 -140.23 601.34 -140.61 587.23 -140.95 573.11 -141.24 559 -141.45 544.89 -141.57 530.78 -141.59 516.67 -141.52 502.56 -141.35 488.45 -141.1 474.34 -140.78 460.23 -140.41 446.12 -140.02 432.01 -139.62 417.9 -139.25 403.78 -138.93 389.67 -138.67 375.56 -138.49 361.45 -138.4 347.34 -138.41 333.23 -138.52 319.12 -138.72 305.01 -139 290.9 -139.34 276.79 -139.72 262.68 -140.11 248.57 -140.5 234.46 -140.86 220.34 -141.16 206.23 -141.4 192.12 -141.54 178.01 -141.59 163.9 -141.55 149.79 -141.41 135.68 -141.18 121.57 -140.88 107.46 -140.52 93.35 -140.13 79.24 -139.74 65.13 -139.36 51.02 -139.01 36.9 -138.73 22.79 -138.53 8.68 -138.42 -5.42 -138.4 -19.53 -138.48 -33.64 -138.66 -47.75 -138.91 -61.86 -139.24 -75.97 -139.6 -90.08 -140 -104.19 -140.39 -118.3 -140.76 -126.74 -128.27 -109.86 -111.25 -101.11 -103.35 -92.48 -95.3 -83.94 -87.1 -75.45 -78.77" fill="url(#uuunion-grad2)" filter="url(#uuunion-blur)"></path><path d="M815.7 424.48Q825.89 420.22 836.09 415.41 846.28 410.17 856.47 404.64 866.66 398.99 876.86 393.37 887.05 387.93 897.24 382.82 911.65 397.37 924.16 411.91 934 426.46 940.6 441 943.55 455.55 942.68 470.09 938.04 484.64 929.9 499.18 918.76 513.73 905.29 528.28 890.3 542.82 874.69 557.37 859.39 571.91 845.34 586.46 833.37 601 824.21 615.55 818.4 630.09 816.3 644.64 818.03 659.18 823.49 673.73 832.35 688.28 844.07 702.82 857.96 717.37 873.17 731.91 888.79 746.46 903.89 761 917.54 775.55 928.94 790.09 937.39 804.64 942.39 819.18 943.64 833.73 941.05 848.27 926.35 861.43 911.64 875.56 896.93 889.92 882.23 903.77 867.52 916.36 852.82 927.05 838.11 935.28 823.41 940.6 808.7 942.76 793.99 941.62 779.29 937.25 764.58 929.88 749.88 919.9 735.17 907.83 720.47 894.29 705.76 880.01 691.05 865.73 676.35 852.19 661.64 840.12 646.94 830.13 632.23 822.75 617.53 818.38 602.82 817.23 588.11 819.38 573.41 824.7 558.7 832.91 544 843.6 529.29 856.19 514.59 870.03 499.88 884.4 485.17 898.53 470.47 911.69 455.76 923.19 441.06 932.42 426.35 938.91 411.65 942.31 396.94 942.45 382.23 939.31 367.53 933.06 352.82 924.04 338.12 912.7 323.41 899.65 308.71 885.57 294 871.2 279.29 857.29 264.59 844.57 249.88 833.7 235.18 825.27 220.47 819.7 205.77 817.29 191.06 818.16 176.35 822.28 161.65 829.42 146.94 839.21 132.24 851.14 117.53 864.58 102.83 878.83 88.12 893.14 73.41 906.76 58.71 918.98 44 929.16 29.3 936.75 7.25 936.78 -0.07 921.59 -0.09 910.99 -0.13 900.39 -0.19 889.79 -0.28 879.19 -0.19 863.29 0.52 858 13.31 850.12 25.93 839.85 38.37 827.37 50.63 812.99 62.69 797.08 74.57 780.07 86.28 762.46 97.82 744.73 109.2 727.38 120.45 710.89 131.59 695.69 142.64 682.13 153.62 670.53 164.56 661.07 175.5 653.88 186.47 648.95 197.49 646.2 208.6 645.44 219.84 646.42 231.23 648.78 242.8 652.15 254.59 656.09 266.61 660.16 278.9 663.89 291.47 666.88 304.34 668.74 317.51 669.12 331.01 667.77 344.83 664.5 358.98 659.22 373.44 651.91 388.2 642.65 403.26 631.61 418.59 619.02 434.16 605.17 449.95 590.42 465.92 575.15 482.04 559.75 498.26 544.63 514.54 530.16 530.84 516.69 547.1 504.5 563.28 493.84 579.33 484.87 595.19 477.67 610.83 472.26 626.18 468.56 641.2 466.43 655.85 465.67 670.09 466.02 683.89 467.17 697.2 468.78 710.01 470.5 722.28 472 734.02 472.93 745.19 473 755.81 471.96 765.88 469.6 775.4 465.77 784.4 460.42 792.89 453.52 800.91 445.13 812.1 429.94 815.7 424.48" fill="url(#uuunion-grad3)" filter="url(#uuunion-blur2)"></path></svg>