<svg xmlns:dc="http://purl.org/dc/elements/1.1/" xmlns:cc="http://creativecommons.org/ns#" xmlns:rdf="http://www.w3.org/1999/02/22-rdf-syntax-ns#" xmlns:svg="http://www.w3.org/2000/svg" xmlns="http://www.w3.org/2000/svg" xmlns:xlink="http://www.w3.org/1999/xlink" id="svg175422" viewBox="0 0 1024 768" height="768px" width="1024px" version="1.1">
  <metadata id="metadata175428">
    <rdf:rdf>
      <cc:work rdf:about="">
        <dc:format>image/svg+xml</dc:format>
        <dc:type rdf:resource="http://purl.org/dc/dcmitype/StillImage"></dc:type>
      </cc:work>
    </rdf:rdf>
  </metadata>
  <defs id="defs175426"></defs>
  <linearGradient spreadMethod="pad" y2="30%" x2="-10%" y1="120%" x1="30%" id="3d_gradient2-logo-0a64c244-8935-481d-8d92-3acb4c0f3d48">
    <stop id="stop175403" stop-opacity="1" stop-color="#ffffff" offset="0%"></stop>
    <stop id="stop175405" stop-opacity="1" stop-color="#000000" offset="100%"></stop>
  </linearGradient>
  <linearGradient gradientTransform="rotate(-30)" spreadMethod="pad" y2="30%" x2="-10%" y1="120%" x1="30%" id="3d_gradient3-logo-0a64c244-8935-481d-8d92-3acb4c0f3d48">
    <stop id="stop175408" stop-opacity="1" stop-color="#ffffff" offset="0%"></stop>
    <stop id="stop175410" stop-opacity="1" stop-color="#cccccc" offset="50%"></stop>
    <stop id="stop175412" stop-opacity="1" stop-color="#000000" offset="100%"></stop>
  </linearGradient>
  <g id="logo-group">
    <image xlink:href="" id="container" x="272" y="144" width="480" height="480" style="display: none;" transform="translate(0 0)"></image>
    <g id="logo-center" transform="translate(-1.1368683772161603e-13 0)">
      <image xlink:href="" id="icon_container" x="0" y="0" style="display: none;"></image>
      <g id="slogan" style="font-style:normal;font-weight:400;font-size:32px;line-height:1;font-family:Montserrat;font-variant-ligatures:none;text-align:center;text-anchor:middle" transform="translate(0 0)">
        <path id="path175430" style="font-style:normal;font-weight:400;font-size:32px;line-height:1;font-family:Montserrat;font-variant-ligatures:none;text-align:center;text-anchor:middle" d="m 298.17425,-17.024 q 2.912,0 4.576,1.76 1.664,1.76 1.664,4.8 V 0 h -3.008 v -9.664 q 0,-2.144 -1.184,-3.36 -1.152,-1.216 -3.2,-1.216 -2.4,0.064 -3.776,1.696 -1.376,1.632 -1.376,4.192 V 0 h -3.008 v -9.664 q 0,-2.144 -1.152,-3.36 -1.152,-1.216 -3.232,-1.216 -2.4,0.064 -3.808,1.696 -1.376,1.632 -1.376,4.192 V 0 h -2.976 v -16.928 h 2.976 v 3.552 q 1.664,-3.584 6.304,-3.648 2.336,0 3.872,1.12 1.568,1.12 2.112,3.136 1.568,-4.192 6.592,-4.256 z" stroke-width="0" stroke-linejoin="miter" stroke-miterlimit="2" fill="#d7651b" stroke="#d7651b" transform="translate(1.1368683772161603e-13 352.124) translate(325.1669374999999 61.168) scale(0.75) translate(-276.31825 17.024)"></path>
        <path id="path175432" style="font-style:normal;font-weight:400;font-size:32px;line-height:1;font-family:Montserrat;font-variant-ligatures:none;text-align:center;text-anchor:middle" d="m 320.09175,0 v -2.368 q -1.888,2.496 -5.92,2.496 -1.76,0 -3.104,-0.672 -1.312,-0.672 -2.048,-1.856 -0.704,-1.184 -0.704,-2.656 0,-2.272 1.664,-3.584 1.696,-1.344 4.704,-1.376 h 5.376 v -0.8 q 0,-1.792 -1.12,-2.752 -1.088,-0.992 -3.2,-0.992 -2.56,0 -5.216,1.824 l -1.248,-2.048 q 1.824,-1.184 3.36,-1.696 1.568,-0.544 3.712,-0.544 3.168,0 4.896,1.568 1.728,1.536 1.76,4.32 L 323.03575,0 Z m -5.312,-2.336 q 2.08,0 3.52,-0.992 1.472,-1.024 1.76,-2.688 v -1.696 h -4.96 q -2.016,0 -3.008,0.608 -0.96,0.608 -0.96,1.92 0,1.312 0.992,2.08 0.992,0.768 2.656,0.768 z" stroke-width="0" stroke-linejoin="miter" stroke-miterlimit="2" fill="#d7651b" stroke="#d7651b" transform="translate(1.1368683772161603e-13 352.124) translate(349.9150624999999 61.168) scale(0.75) translate(-308.31575 17.024)"></path>
        <path id="path175434" style="font-style:normal;font-weight:400;font-size:32px;line-height:1;font-family:Montserrat;font-variant-ligatures:none;text-align:center;text-anchor:middle" d="m 331.29425,-13.28 q 0.832,-1.824 2.368,-2.752 1.536,-0.96 3.648,-0.992 v 2.88 q -2.592,-0.096 -4.192,1.344 -1.6,1.44 -1.824,3.872 V 0 h -2.976 v -16.928 h 2.976 z" stroke-width="0" stroke-linejoin="miter" stroke-miterlimit="2" fill="#d7651b" stroke="#d7651b" transform="translate(1.1368683772161603e-13 352.124) translate(365.6669374999999 61.168) scale(0.75) translate(-328.31825 17.024)"></path>
        <path id="path175436" style="font-style:normal;font-weight:400;font-size:32px;line-height:1;font-family:Montserrat;font-variant-ligatures:none;text-align:center;text-anchor:middle" d="m 352.40825,0 -5.408,-8.224 -3.296,3.424 V 0 h -2.976 v -23.744 h 2.976 v 15.136 l 8.192,-8.32 h 3.488 l -6.304,6.56 6.912,10.368 z" stroke-width="0" stroke-linejoin="miter" stroke-miterlimit="2" fill="#d7651b" stroke="#d7651b" transform="translate(1.1368683772161603e-13 352.124) translate(375.7244374999999 56.128) scale(0.75) translate(-340.72825 23.744)"></path>
        <path id="path175438" style="font-style:normal;font-weight:400;font-size:32px;line-height:1;font-family:Montserrat;font-variant-ligatures:none;text-align:center;text-anchor:middle" d="m 365.22725,-17.024 q 3.936,0 5.952,2.336 2.016,2.304 2.016,6.432 0,0.64 -0.032,0.96 h -13.376 q 0.352,2.272 1.888,3.616 1.568,1.344 3.84,1.344 1.504,0 2.784,-0.544 1.312,-0.544 2.272,-1.536 l 1.632,1.696 q -1.248,1.344 -3.008,2.08 -1.76,0.736 -3.904,0.736 -2.496,0 -4.448,-1.056 -1.92,-1.088 -3.008,-3.04 -1.056,-1.952 -1.056,-4.448 0,-2.496 1.056,-4.416 1.088,-1.952 3.008,-3.04 1.92,-1.12 4.384,-1.12 z m 5.28,7.424 q -0.128,-2.304 -1.536,-3.616 -1.408,-1.344 -3.712,-1.344 -2.24,0 -3.744,1.344 -1.472,1.344 -1.76,3.616 z" stroke-width="0" stroke-linejoin="miter" stroke-miterlimit="2" fill="#d7651b" stroke="#d7651b" transform="translate(1.1368683772161603e-13 352.124) translate(388.51268749999986 61.168) scale(0.75) translate(-356.77925 17.024)"></path>
        <path id="path175440" style="font-style:normal;font-weight:400;font-size:32px;line-height:1;font-family:Montserrat;font-variant-ligatures:none;text-align:center;text-anchor:middle" d="m 386.34375,-1.12 q -1.952,1.248 -3.968,1.248 -2.016,0 -3.264,-1.184 -1.248,-1.216 -1.248,-3.648 v -9.376 h -2.4 v -2.272 h 2.4 v -4.544 h 3.008 v 4.544 h 5.184 v 2.272 h -5.184 v 8.832 q 0,1.408 0.512,2.016 0.512,0.608 1.536,0.608 1.216,0 2.624,-0.8 z" stroke-width="0" stroke-linejoin="miter" stroke-miterlimit="2" fill="#d7651b" stroke="#d7651b" transform="translate(1.1368683772161603e-13 352.124) translate(403.27606249999985 58.264) scale(0.75) translate(-375.46375 20.896)"></path>
        <path id="path175442" style="font-style:normal;font-weight:400;font-size:32px;line-height:1;font-family:Montserrat;font-variant-ligatures:none;text-align:center;text-anchor:middle" d="M 414.09425,-23.744 V 0 h -2.976 v -3.36 q -0.96,1.696 -2.592,2.624 -1.6,0.896 -3.744,0.896 -2.4,0 -4.256,-1.088 -1.824,-1.12 -2.848,-3.072 -1.024,-1.984 -1.024,-4.512 0,-2.496 1.024,-4.416 1.024,-1.952 2.848,-3.04 1.856,-1.088 4.224,-1.088 2.176,0 3.808,0.896 1.632,0.896 2.56,2.592 v -10.176 z m -8.704,21.344 q 1.664,0 2.944,-0.768 1.312,-0.768 2.048,-2.144 0.736,-1.376 0.736,-3.104 0,-1.76 -0.736,-3.136 -0.736,-1.376 -2.048,-2.144 -1.28,-0.768 -2.944,-0.768 -1.664,0 -2.976,0.8 -1.28,0.768 -2.016,2.144 -0.736,1.376 -0.736,3.104 0,1.728 0.736,3.104 0.736,1.376 2.016,2.144 1.312,0.768 2.976,0.768 z" stroke-width="0" stroke-linejoin="miter" stroke-miterlimit="2" fill="#d7651b" stroke="#d7651b" transform="translate(1.1368683772161603e-13 352.124) translate(419.91893749999986 56.128) scale(0.75) translate(-396.65425 23.744)"></path>
        <path id="path175444" style="font-style:normal;font-weight:400;font-size:32px;line-height:1;font-family:Montserrat;font-variant-ligatures:none;text-align:center;text-anchor:middle" d="m 430.40425,0 v -2.368 q -1.888,2.496 -5.92,2.496 -1.76,0 -3.104,-0.672 -1.312,-0.672 -2.048,-1.856 -0.704,-1.184 -0.704,-2.656 0,-2.272 1.664,-3.584 1.696,-1.344 4.704,-1.376 h 5.376 v -0.8 q 0,-1.792 -1.12,-2.752 -1.088,-0.992 -3.2,-0.992 -2.56,0 -5.216,1.824 l -1.248,-2.048 q 1.824,-1.184 3.36,-1.696 1.568,-0.544 3.712,-0.544 3.168,0 4.896,1.568 1.728,1.536 1.76,4.32 L 433.34825,0 Z m -5.312,-2.336 q 2.08,0 3.52,-0.992 1.472,-1.024 1.76,-2.688 v -1.696 h -4.96 q -2.016,0 -3.008,0.608 -0.96,0.608 -0.96,1.92 0,1.312 0.992,2.08 0.992,0.768 2.656,0.768 z" stroke-width="0" stroke-linejoin="miter" stroke-miterlimit="2" fill="#d7651b" stroke="#d7651b" transform="translate(1.1368683772161603e-13 352.124) translate(437.14943749999986 61.168) scale(0.75) translate(-418.62825 17.024)"></path>
        <path id="path175446" style="font-style:normal;font-weight:400;font-size:32px;line-height:1;font-family:Montserrat;font-variant-ligatures:none;text-align:center;text-anchor:middle" d="m 447.71875,-1.12 q -1.952,1.248 -3.968,1.248 -2.016,0 -3.264,-1.184 -1.248,-1.216 -1.248,-3.648 v -9.376 h -2.4 v -2.272 h 2.4 v -4.544 h 3.008 v 4.544 h 5.184 v 2.272 h -5.184 v 8.832 q 0,1.408 0.512,2.016 0.512,0.608 1.536,0.608 1.216,0 2.624,-0.8 z" stroke-width="0" stroke-linejoin="miter" stroke-miterlimit="2" fill="#d7651b" stroke="#d7651b" transform="translate(1.1368683772161603e-13 352.124) translate(451.55731249999985 58.264) scale(0.75) translate(-436.83875 20.896)"></path>
        <path id="path175448" style="font-style:normal;font-weight:400;font-size:32px;line-height:1;font-family:Montserrat;font-variant-ligatures:none;text-align:center;text-anchor:middle" d="m 461.65425,0 v -2.368 q -1.888,2.496 -5.92,2.496 -1.76,0 -3.104,-0.672 -1.312,-0.672 -2.048,-1.856 -0.704,-1.184 -0.704,-2.656 0,-2.272 1.664,-3.584 1.696,-1.344 4.704,-1.376 h 5.376 v -0.8 q 0,-1.792 -1.12,-2.752 -1.088,-0.992 -3.2,-0.992 -2.56,0 -5.216,1.824 l -1.248,-2.048 q 1.824,-1.184 3.36,-1.696 1.568,-0.544 3.712,-0.544 3.168,0 4.896,1.568 1.728,1.536 1.76,4.32 L 464.59825,0 Z m -5.312,-2.336 q 2.08,0 3.52,-0.992 1.472,-1.024 1.76,-2.688 v -1.696 h -4.96 q -2.016,0 -3.008,0.608 -0.96,0.608 -0.96,1.92 0,1.312 0.992,2.08 0.992,0.768 2.656,0.768 z" stroke-width="0" stroke-linejoin="miter" stroke-miterlimit="2" fill="#d7651b" stroke="#d7651b" transform="translate(1.1368683772161603e-13 352.124) translate(462.08693749999986 61.168) scale(0.75) translate(-449.87825 17.024)"></path>
        <path id="path175450" style="font-style:normal;font-weight:400;font-size:32px;line-height:1;font-family:Montserrat;font-variant-ligatures:none;text-align:center;text-anchor:middle" d="m 488.59175,0 v -2.368 q -1.888,2.496 -5.92,2.496 -1.76,0 -3.104,-0.672 -1.312,-0.672 -2.048,-1.856 -0.704,-1.184 -0.704,-2.656 0,-2.272 1.664,-3.584 1.696,-1.344 4.704,-1.376 h 5.376 v -0.8 q 0,-1.792 -1.12,-2.752 -1.088,-0.992 -3.2,-0.992 -2.56,0 -5.216,1.824 l -1.248,-2.048 q 1.824,-1.184 3.36,-1.696 1.568,-0.544 3.712,-0.544 3.168,0 4.896,1.568 1.728,1.536 1.76,4.32 L 491.53575,0 Z m -5.312,-2.336 q 2.08,0 3.52,-0.992 1.472,-1.024 1.76,-2.688 v -1.696 h -4.96 q -2.016,0 -3.008,0.608 -0.96,0.608 -0.96,1.92 0,1.312 0.992,2.08 0.992,0.768 2.656,0.768 z" stroke-width="0" stroke-linejoin="miter" stroke-miterlimit="2" fill="#d7651b" stroke="#d7651b" transform="translate(1.1368683772161603e-13 352.124) translate(483.04006249999986 61.168) scale(0.75) translate(-476.81575 17.024)"></path>
        <path id="path175452" style="font-style:normal;font-weight:400;font-size:32px;line-height:1;font-family:Montserrat;font-variant-ligatures:none;text-align:center;text-anchor:middle" d="m 505.90625,-1.12 q -1.952,1.248 -3.968,1.248 -2.016,0 -3.264,-1.184 -1.248,-1.216 -1.248,-3.648 v -9.376 h -2.4 v -2.272 h 2.4 v -4.544 h 3.008 v 4.544 h 5.184 v 2.272 h -5.184 v 8.832 q 0,1.408 0.512,2.016 0.512,0.608 1.536,0.608 1.216,0 2.624,-0.8 z" stroke-width="0" stroke-linejoin="miter" stroke-miterlimit="2" fill="#d7651b" stroke="#d7651b" transform="translate(1.1368683772161603e-13 352.124) translate(497.44793749999985 58.264) scale(0.75) translate(-495.02625 20.896)"></path>
        <path id="path175454" style="font-style:normal;font-weight:400;font-size:32px;line-height:1;font-family:Montserrat;font-variant-ligatures:none;text-align:center;text-anchor:middle" d="m 523.80075,2.4 q -0.8,1.952 -2.144,2.944 -1.312,0.992 -3.104,0.992 -1.088,0 -1.984,-0.32 -0.896,-0.32 -1.728,-0.992 l 1.28,-2.336 q 1.12,0.8 2.272,0.8 1.92,0 2.88,-2.176 l 0.64,-1.504 -7.008,-16.736 h 3.136 l 5.376,13.568 5.088,-13.568 h 3.04 z" stroke-width="0" stroke-linejoin="miter" stroke-miterlimit="2" fill="#d7651b" stroke="#d7651b" transform="translate(1.1368683772161603e-13 352.124) translate(513.0588124999998 61.24) scale(0.75) translate(-514.84075 16.928)"></path>
        <path id="path175456" style="font-style:normal;font-weight:400;font-size:32px;line-height:1;font-family:Montserrat;font-variant-ligatures:none;text-align:center;text-anchor:middle" d="m 540.79575,-17.024 q 2.528,0 4.48,1.088 1.984,1.088 3.072,3.04 1.12,1.92 1.12,4.416 0,2.496 -1.12,4.448 -1.088,1.952 -3.072,3.04 -1.952,1.088 -4.48,1.088 -2.56,0 -4.544,-1.088 -1.952,-1.088 -3.072,-3.008 -1.088,-1.952 -1.088,-4.48 0,-2.496 1.088,-4.416 1.12,-1.952 3.072,-3.04 1.984,-1.088 4.544,-1.088 z m 0,2.592 q -1.664,0 -2.976,0.768 -1.28,0.768 -2.016,2.144 -0.704,1.344 -0.704,3.072 0,1.76 0.704,3.136 0.736,1.376 2.016,2.144 1.312,0.736 2.976,0.736 1.632,0 2.912,-0.736 1.312,-0.768 2.016,-2.144 0.736,-1.376 0.736,-3.136 0,-1.728 -0.736,-3.072 -0.704,-1.376 -2.016,-2.144 -1.28,-0.768 -2.912,-0.768 z" stroke-width="0" stroke-linejoin="miter" stroke-miterlimit="2" fill="#d7651b" stroke="#d7651b" transform="translate(1.1368683772161603e-13 352.124) translate(526.7470625 61.168) scale(0.75) translate(-532.09175 17.024)"></path>
        <path id="path175458" style="font-style:normal;font-weight:400;font-size:32px;line-height:1;font-family:Montserrat;font-variant-ligatures:none;text-align:center;text-anchor:middle" d="M 568.60675,-16.928 V 0 h -3.008 v -3.584 q -1.664,3.616 -6.272,3.68 -2.944,0 -4.608,-1.728 -1.664,-1.76 -1.664,-4.832 v -10.464 h 3.008 v 9.664 q 0,2.144 1.152,3.36 1.184,1.184 3.232,1.184 2.368,-0.032 3.744,-1.664 1.408,-1.664 1.408,-4.224 v -8.32 z" stroke-width="0" stroke-linejoin="miter" stroke-miterlimit="2" fill="#d7651b" stroke="#d7651b" transform="translate(1.1368683772161603e-13 352.124) translate(543.2193125 61.24) scale(0.75) translate(-553.05475 16.928)"></path>
        <path id="path175460" style="font-style:normal;font-weight:400;font-size:32px;line-height:1;font-family:Montserrat;font-variant-ligatures:none;text-align:center;text-anchor:middle" d="m 577.35675,-13.28 q 0.832,-1.824 2.368,-2.752 1.536,-0.96 3.648,-0.992 v 2.88 q -2.592,-0.096 -4.192,1.344 -1.6,1.44 -1.824,3.872 V 0 h -2.976 v -16.928 h 2.976 z" stroke-width="0" stroke-linejoin="miter" stroke-miterlimit="2" fill="#d7651b" stroke="#d7651b" transform="translate(1.1368683772161603e-13 352.124) translate(559.9638125 61.168) scale(0.75) translate(-574.38075 17.024)"></path>
        <path id="path175462" style="font-style:normal;font-weight:400;font-size:32px;line-height:1;font-family:Montserrat;font-variant-ligatures:none;text-align:center;text-anchor:middle" d="m 601.24575,-21.28 q -1.152,0 -1.92,0.704 -0.768,0.704 -0.768,2.016 v 2.208 h 4.672 v 2.272 h -4.672 V 0 h -2.976 v -14.08 h -2.208 v -2.272 h 2.208 v -1.824 q 0,-1.856 0.768,-3.136 0.8,-1.312 2.08,-1.952 1.28,-0.672 2.752,-0.672 1.408,0 2.944,0.768 l -0.704,2.432 q -1.152,-0.544 -2.176,-0.544 z" stroke-width="0" stroke-linejoin="miter" stroke-miterlimit="2" fill="#d7651b" stroke="#d7651b" transform="translate(1.1368683772161603e-13 352.124) translate(574.9585625 55.984) scale(0.75) translate(-593.37375 23.936)"></path>
        <path id="path175464" style="font-style:normal;font-weight:400;font-size:32px;line-height:1;font-family:Montserrat;font-variant-ligatures:none;text-align:center;text-anchor:middle" d="m 605.94325,-16.928 h 2.976 V 0 h -2.976 z m 1.472,-6.752 q 0.8,0 1.312,0.544 0.544,0.544 0.544,1.376 0,0.832 -0.544,1.376 -0.512,0.544 -1.312,0.544 -0.8,0 -1.344,-0.544 -0.512,-0.544 -0.512,-1.376 0,-0.832 0.512,-1.376 0.544,-0.544 1.344,-0.544 z" stroke-width="0" stroke-linejoin="miter" stroke-miterlimit="2" fill="#d7651b" stroke="#d7651b" transform="translate(1.1368683772161603e-13 352.124) translate(584.8476875 56.176) scale(0.75) translate(-605.55925 23.68)"></path>
        <path id="path175466" style="font-style:normal;font-weight:400;font-size:32px;line-height:1;font-family:Montserrat;font-variant-ligatures:none;text-align:center;text-anchor:middle" d="m 624.10125,-17.024 q 2.976,0 4.672,1.76 1.696,1.728 1.696,4.8 V 0 h -2.976 v -9.664 q 0,-2.144 -1.216,-3.328 -1.184,-1.216 -3.296,-1.216 -2.272,0.032 -3.712,1.472 -1.408,1.408 -1.6,3.68 V 0 h -2.976 v -16.928 h 2.976 v 3.584 q 1.696,-3.616 6.432,-3.68 z" stroke-width="0" stroke-linejoin="miter" stroke-miterlimit="2" fill="#d7651b" stroke="#d7651b" transform="translate(1.1368683772161603e-13 352.124) translate(592.4481875 61.168) scale(0.75) translate(-614.69325 17.024)"></path>
        <path id="path175468" style="font-style:normal;font-weight:400;font-size:32px;line-height:1;font-family:Montserrat;font-variant-ligatures:none;text-align:center;text-anchor:middle" d="m 650.73175,-16.928 v 15.2 q 0,2.432 -1.088,4.256 -1.056,1.824 -3.008,2.784 -1.952,0.992 -4.544,0.992 -3.744,0 -6.976,-2.368 l 1.312,-2.176 q 1.248,1.024 2.592,1.504 1.344,0.512 2.944,0.512 2.624,0 4.192,-1.472 1.568,-1.472 1.568,-3.936 V -4 q -0.896,1.536 -2.432,2.4 -1.536,0.832 -3.52,0.832 -2.272,0 -4.032,-1.024 -1.728,-1.056 -2.688,-2.912 -0.96,-1.856 -0.96,-4.256 0,-2.368 0.96,-4.192 0.96,-1.824 2.688,-2.848 1.76,-1.024 4.032,-1.024 2.016,0 3.52,0.832 1.536,0.832 2.432,2.368 v -3.104 z m -8.384,13.76 q 1.568,0 2.784,-0.736 1.216,-0.736 1.888,-2.016 0.704,-1.312 0.704,-2.944 0,-1.664 -0.704,-2.944 -0.672,-1.312 -1.888,-2.048 -1.216,-0.736 -2.784,-0.736 -1.568,0 -2.816,0.736 -1.216,0.736 -1.92,2.048 -0.704,1.28 -0.704,2.944 0.032,2.496 1.536,4.096 1.504,1.6 3.904,1.6 z" stroke-width="0" stroke-linejoin="miter" stroke-miterlimit="2" fill="#d7651b" stroke="#d7651b" transform="translate(1.1368683772161603e-13 352.124) translate(607.7470625000001 61.168) scale(0.75) translate(-634.09175 17.024)"></path>
        <path id="path175470" style="font-style:normal;font-weight:400;font-size:32px;line-height:1;font-family:Montserrat;font-variant-ligatures:none;text-align:center;text-anchor:middle" d="m 662.97725,-17.024 q 3.936,0 5.952,2.336 2.016,2.304 2.016,6.432 0,0.64 -0.032,0.96 h -13.376 q 0.352,2.272 1.888,3.616 1.568,1.344 3.84,1.344 1.504,0 2.784,-0.544 1.312,-0.544 2.272,-1.536 l 1.632,1.696 q -1.248,1.344 -3.008,2.08 -1.76,0.736 -3.904,0.736 -2.496,0 -4.448,-1.056 -1.92,-1.088 -3.008,-3.04 -1.056,-1.952 -1.056,-4.448 0,-2.496 1.056,-4.416 1.088,-1.952 3.008,-3.04 1.92,-1.12 4.384,-1.12 z m 5.28,7.424 q -0.128,-2.304 -1.536,-3.616 -1.408,-1.344 -3.712,-1.344 -2.24,0 -3.744,1.344 -1.472,1.344 -1.76,3.616 z" stroke-width="0" stroke-linejoin="miter" stroke-miterlimit="2" fill="#d7651b" stroke="#d7651b" transform="translate(1.1368683772161603e-13 352.124) translate(623.8251875000001 61.168) scale(0.75) translate(-654.52925 17.024)"></path>
        <path id="path175472" style="font-style:normal;font-weight:400;font-size:32px;line-height:1;font-family:Montserrat;font-variant-ligatures:none;text-align:center;text-anchor:middle" d="m 677.98175,-13.28 q 0.832,-1.824 2.368,-2.752 1.536,-0.96 3.648,-0.992 v 2.88 q -2.592,-0.096 -4.192,1.344 -1.6,1.44 -1.824,3.872 V 0 h -2.976 v -16.928 h 2.976 z" stroke-width="0" stroke-linejoin="miter" stroke-miterlimit="2" fill="#d7651b" stroke="#d7651b" transform="translate(1.1368683772161603e-13 352.124) translate(639.9325625 61.168) scale(0.75) translate(-675.00575 17.024)"></path>
        <path id="path175474" style="font-style:normal;font-weight:400;font-size:32px;line-height:1;font-family:Montserrat;font-variant-ligatures:none;text-align:center;text-anchor:middle" d="m 704.71875,-1.12 q -1.952,1.248 -3.968,1.248 -2.016,0 -3.264,-1.184 -1.248,-1.216 -1.248,-3.648 v -9.376 h -2.4 v -2.272 h 2.4 v -4.544 h 3.008 v 4.544 h 5.184 v 2.272 h -5.184 v 8.832 q 0,1.408 0.512,2.016 0.512,0.608 1.536,0.608 1.216,0 2.624,-0.8 z" stroke-width="0" stroke-linejoin="miter" stroke-miterlimit="2" fill="#d7651b" stroke="#d7651b" transform="translate(1.1368683772161603e-13 352.124) translate(654.8073125000001 58.264) scale(0.75) translate(-693.83875 20.896)"></path>
        <path id="path175476" style="font-style:normal;font-weight:400;font-size:32px;line-height:1;font-family:Montserrat;font-variant-ligatures:none;text-align:center;text-anchor:middle" d="m 708.31825,-16.928 h 2.976 V 0 h -2.976 z m 1.472,-6.752 q 0.8,0 1.312,0.544 0.544,0.544 0.544,1.376 0,0.832 -0.544,1.376 -0.512,0.544 -1.312,0.544 -0.8,0 -1.344,-0.544 -0.512,-0.544 -0.512,-1.376 0,-0.832 0.512,-1.376 0.544,-0.544 1.344,-0.544 z" stroke-width="0" stroke-linejoin="miter" stroke-miterlimit="2" fill="#d7651b" stroke="#d7651b" transform="translate(1.1368683772161603e-13 352.124) translate(666.1289375000001 56.176) scale(0.75) translate(-707.93425 23.68)"></path>
        <path id="path175478" style="font-style:normal;font-weight:400;font-size:32px;line-height:1;font-family:Montserrat;font-variant-ligatures:none;text-align:center;text-anchor:middle" d="m 726.47625,-17.024 q 2.368,0 4.224,1.088 1.856,1.088 2.88,3.04 1.024,1.952 1.024,4.48 0,2.496 -1.024,4.448 -0.992,1.92 -2.848,3.008 -1.824,1.056 -4.192,1.056 -2.144,0 -3.776,-0.896 -1.632,-0.896 -2.56,-2.56 v 9.568 h -2.976 v -23.136 h 2.976 v 3.36 q 0.928,-1.664 2.528,-2.56 1.632,-0.896 3.744,-0.896 z m -0.576,14.528 q 1.632,0 2.912,-0.768 1.312,-0.768 2.016,-2.144 0.736,-1.376 0.736,-3.104 0,-1.696 -0.736,-3.072 -0.736,-1.376 -2.016,-2.144 -1.28,-0.768 -2.912,-0.768 -1.632,0 -2.944,0.768 -1.28,0.768 -2.016,2.144 -0.736,1.376 -0.736,3.072 0,1.76 0.736,3.136 0.736,1.344 2.016,2.112 1.312,0.768 2.944,0.768 z" stroke-width="0" stroke-linejoin="miter" stroke-miterlimit="2" fill="#d7651b" stroke="#d7651b" transform="translate(1.1368683772161603e-13 352.124) translate(673.8494375000001 61.168) scale(0.75) translate(-717.22825 17.024)"></path>
        <path id="path175480" style="font-style:normal;font-weight:400;font-size:32px;line-height:1;font-family:Montserrat;font-variant-ligatures:none;text-align:center;text-anchor:middle" d="m 748.00375,-13.184 q -1.056,-0.64 -2.336,-1.024 -1.248,-0.384 -2.4,-0.384 -1.344,0 -2.176,0.512 -0.8,0.48 -0.8,1.504 0,1.024 0.896,1.568 0.928,0.512 2.784,1.056 1.76,0.512 2.88,1.024 1.12,0.512 1.888,1.504 0.8,0.992 0.8,2.624 0,2.4 -1.824,3.648 -1.792,1.248 -4.48,1.248 -1.888,0 -3.68,-0.608 -1.76,-0.608 -2.976,-1.728 l 1.12,-2.176 q 1.056,0.96 2.592,1.536 1.568,0.576 3.04,0.576 1.472,0 2.368,-0.544 0.896,-0.544 0.896,-1.664 0,-1.152 -0.96,-1.728 -0.928,-0.576 -2.848,-1.152 -1.696,-0.48 -2.784,-0.96 -1.056,-0.512 -1.824,-1.472 -0.736,-0.96 -0.736,-2.496 0,-2.368 1.728,-3.552 1.728,-1.184 4.32,-1.184 1.536,0 3.008,0.448 1.504,0.416 2.592,1.152 z" stroke-width="0" stroke-linejoin="miter" stroke-miterlimit="2" fill="#d7651b" stroke="#d7651b" transform="translate(1.1368683772161603e-13 352.124) translate(689.1130625000002 61.144) scale(0.75) translate(-736.57975 17.056)"></path>
      </g>
      <g id="title" style="font-style:normal;font-weight:300;font-size:72px;line-height:1;font-family:'Montserrat Light Alt1';font-variant-ligatures:none;text-align:center;text-anchor:middle" transform="translate(0 0)">
        <path id="path175483" style="font-style:normal;font-weight:300;font-size:72px;line-height:1;font-family:'Montserrat Light Alt1';font-variant-ligatures:none;text-align:center;text-anchor:middle" d="m 293.3045,-3.312 h -35.496 l 34.704,-44.496 V -50.4 h -39.384 v 3.312 h 34.344 l -34.776,44.496 V 0 h 40.608 z" stroke-width="0" stroke-linejoin="miter" stroke-miterlimit="2" fill="#d7651b" stroke="#d7651b" transform="translate(0 287.188) translate(252.97381500000006 50.36) scale(1) translate(-252.6965 50.4)"></path>
        <path id="path175485" style="font-style:normal;font-weight:300;font-size:72px;line-height:1;font-family:'Montserrat Light Alt1';font-variant-ligatures:none;text-align:center;text-anchor:middle" d="m 337.25937,-27.216 h -32.616 v 3.24 h 32.616 z m 0,-23.184 h -32.616 v 3.312 h 32.616 z m -32.616,47.088 V 0 h 32.616 v -3.312 z" stroke-width="0" stroke-linejoin="miter" stroke-miterlimit="2" fill="#d7651b" stroke="#d7651b" transform="translate(0 287.188) translate(304.9206850000001 50.36) scale(1) translate(-304.64337 50.4)"></path>
        <path id="path175487" style="font-style:normal;font-weight:300;font-size:72px;line-height:1;font-family:'Montserrat Light Alt1';font-variant-ligatures:none;text-align:center;text-anchor:middle" d="m 393.91775,-50.4 h -3.672 v 43.776 l -34.272,-43.776 h -3.096 V 0 h 3.672 V -43.776 L 390.89375,0 h 3.024 z" stroke-width="0" stroke-linejoin="miter" stroke-miterlimit="2" fill="#d7651b" stroke="#d7651b" transform="translate(0 287.188) translate(353.1550650000001 50.36) scale(1) translate(-352.87775 50.4)"></path>
        <path id="path175489" style="font-style:normal;font-weight:300;font-size:72px;line-height:1;font-family:'Montserrat Light Alt1';font-variant-ligatures:none;text-align:center;text-anchor:middle" d="m 419.43837,-2.952 c 3.96,2.232 8.424,3.312 13.392,3.312 3.60001,0 6.912,-0.576 10.008,-1.8 3.096,-1.152 5.76001,-2.952 7.92,-5.256 l -2.30399,-2.376 c -4.10401,4.032 -9.288,6.048 -15.48001,6.048 -4.24799,0 -8.064,-0.936 -11.51999,-2.88 -3.45601,-1.872 -6.192,-4.536 -8.13601,-7.92 -2.016,-3.384 -2.952,-7.2 -2.952,-11.376 0,-4.176 0.936,-7.92 2.952,-11.304 1.94401,-3.384 4.68,-6.048 8.13601,-7.992 3.45599,-1.872 7.272,-2.88 11.51999,-2.88 6.26401,0 11.448,2.016 15.48001,5.976 l 2.30399,-2.376 c -2.15999,-2.304 -4.824,-4.032 -7.848,-5.184 -3.096,-1.152 -6.47999,-1.8 -10.08,-1.8 -4.968,0 -9.432,1.152 -13.392,3.312 -3.95999,2.232 -7.05599,5.256 -9.36,9.144 -2.30399,3.888 -3.384,8.28 -3.384,13.104 0,4.896 1.08001,9.216 3.384,13.104 2.30401,3.888 5.40001,6.984 9.36,9.144 z" stroke-width="0" stroke-linejoin="miter" stroke-miterlimit="2" fill="#d7651b" stroke="#d7651b" transform="translate(0 287.188) translate(406.9716850000001 50) scale(1) translate(-406.69437 50.76)"></path>
        <path id="path175491" style="font-style:normal;font-weight:300;font-size:72px;line-height:1;font-family:'Montserrat Light Alt1';font-variant-ligatures:none;text-align:center;text-anchor:middle" d="m 489.69575,-17.64 c 3.744,-1.08 6.696,-2.952 8.712,-5.688 2.016,-2.736 3.096,-6.048 3.096,-10.08 0,-5.256 -1.8,-9.432 -5.4,-12.456 -3.6,-3.024 -8.568,-4.536 -14.904,-4.536 h -18.072 v 3.312 h 18.072 c 5.328,0 9.432,1.224 12.312,3.6 2.808,2.376 4.248,5.76 4.248,10.08 0,4.392 -1.44,7.776 -4.248,10.152 -2.88,2.376 -6.984,3.528 -12.312,3.528 h -18.072 V 0 h 3.672 v -16.488 h 14.4 c 1.44,0 3.096,-0.072 4.896,-0.36 L 498.11975,0 h 4.176 z" stroke-width="0" stroke-linejoin="miter" stroke-miterlimit="2" fill="#d7651b" stroke="#d7651b" transform="translate(0 287.188) translate(463.4050650000001 50.36) scale(1) translate(-463.12775 50.4)"></path>
        <path id="path175493" style="font-style:normal;font-weight:300;font-size:72px;line-height:1;font-family:'Montserrat Light Alt1';font-variant-ligatures:none;text-align:center;text-anchor:middle" d="m 533.45037,-50.4 h -3.672 L 506.59438,0 h 3.95999 L 531.57838,-46.368 552.67438,0 h 3.95999 z" stroke-width="0" stroke-linejoin="miter" stroke-miterlimit="2" fill="#d7651b" stroke="#d7651b" transform="translate(0 287.188) translate(506.8716950000001 50.36) scale(1) translate(-506.59438 50.4)"></path>
        <path id="path175495" style="font-style:normal;font-weight:300;font-size:72px;line-height:1;font-family:'Montserrat Light Alt1';font-variant-ligatures:none;text-align:center;text-anchor:middle" d="m 630.64475,-50.4 h -3.6 l -15.48,45.432 -15.696,-45.432 h -3.528 l -15.768,45.36 -15.336,-45.36 h -3.888 l 17.136,50.4 h 3.888 l 15.696,-45.216 15.624,45.216 h 3.888 z" stroke-width="0" stroke-linejoin="miter" stroke-miterlimit="2" fill="#d7651b" stroke="#d7651b" transform="translate(0 287.188) translate(557.6260650000002 50.36) scale(1) translate(-557.34875 50.4)"></path>
        <path id="path175497" style="font-style:normal;font-weight:300;font-size:72px;line-height:1;font-family:'Montserrat Light Alt1';font-variant-ligatures:none;text-align:center;text-anchor:middle" d="M 641.159,-50.4 V 0 h 32.688 V -3.312 H 644.831 V -50.4 Z" stroke-width="0" stroke-linejoin="miter" stroke-miterlimit="2" fill="#d7651b" stroke="#d7651b" transform="translate(0 287.188) translate(641.4363150000001 50.36) scale(1) translate(-641.159 50.4)"></path>
        <path id="path175499" style="font-style:normal;font-weight:300;font-size:72px;line-height:1;font-family:'Montserrat Light Alt1';font-variant-ligatures:none;text-align:center;text-anchor:middle" d="m 715.9625,-27.216 h -32.616 v 3.24 h 32.616 z m 0,-23.184 h -32.616 v 3.312 h 32.616 z m -32.616,47.088 V 0 h 32.616 v -3.312 z" stroke-width="0" stroke-linejoin="miter" stroke-miterlimit="2" fill="#d7651b" stroke="#d7651b" transform="translate(0 287.188) translate(683.6238150000001 50.36) scale(1) translate(-683.3465 50.4)"></path>
        <path id="path175501" style="font-style:normal;font-weight:300;font-size:72px;line-height:1;font-family:'Montserrat Light Alt1';font-variant-ligatures:none;text-align:center;text-anchor:middle" d="m 758.14887,-17.64 c 3.744,-1.08 6.696,-2.952 8.712,-5.688 2.01601,-2.736 3.096,-6.048 3.096,-10.08 0,-5.256 -1.79999,-9.432 -5.4,-12.456 -3.6,-3.024 -8.568,-4.536 -14.904,-4.536 h -18.072 v 3.312 h 18.072 c 5.328,0 9.432,1.224 12.312,3.6 2.808,2.376 4.248,5.76 4.248,10.08 0,4.392 -1.44,7.776 -4.248,10.152 -2.88,2.376 -6.984,3.528 -12.312,3.528 h -18.072 V 0 h 3.67201 v -16.488 h 14.39999 c 1.44001,0 3.096,-0.072 4.896,-0.36 L 766.57287,0 h 4.176 z" stroke-width="0" stroke-linejoin="miter" stroke-miterlimit="2" fill="#d7651b" stroke="#d7651b" transform="translate(0 287.188) translate(731.8581850000002 50.36) scale(1) translate(-731.58087 50.4)"></path>
      </g>
      <image xlink:href="" id="icon" x="0" y="0" style="display: none;"></image>
    </g>
  </g>
</svg>