<?xml version="1.0" encoding="UTF-8" standalone="no"?>
<svg
   id="svg175422"
   viewBox="0 0 1024 768"
   height="768"
   width="1024"
   version="1.1"
   sodipodi:docname="zen.svg"
   inkscape:export-filename="../bfa2e1d3/zen2.svg"
   inkscape:export-xdpi="48"
   inkscape:export-ydpi="48"
   xmlns:inkscape="http://www.inkscape.org/namespaces/inkscape"
   xmlns:sodipodi="http://sodipodi.sourceforge.net/DTD/sodipodi-0.dtd"
   xmlns="http://www.w3.org/2000/svg"
   xmlns:svg="http://www.w3.org/2000/svg"
   xmlns:rdf="http://www.w3.org/1999/02/22-rdf-syntax-ns#"
   xmlns:cc="http://creativecommons.org/ns#"
   xmlns:dc="http://purl.org/dc/elements/1.1/">
  <sodipodi:namedview
     id="namedview78"
     pagecolor="#ffffff"
     bordercolor="#999999"
     borderopacity="1"
     inkscape:showpageshadow="0"
     inkscape:pageopacity="0"
     inkscape:pagecheckerboard="0"
     inkscape:deskcolor="#d1d1d1"
     showgrid="false" />
  <metadata
     id="metadata175428">
    <rdf:rdf>
      <cc:work
         rdf:about="">
        <dc:format>image/svg+xml</dc:format>
        <dc:type
           rdf:resource="http://purl.org/dc/dcmitype/StillImage" />
      </cc:work>
    </rdf:rdf>
  </metadata>
  <defs
     id="defs175426" />
  <linearGradient
     spreadMethod="pad"
     y2="0.30000001"
     x2="-0.1"
     y1="1.2"
     x1="0.30000001"
     id="3d_gradient2-logo-0a64c244-8935-481d-8d92-3acb4c0f3d48">
    <stop
       id="stop175403"
       stop-opacity="1"
       stop-color="#ffffff"
       offset="0%" />
    <stop
       id="stop175405"
       stop-opacity="1"
       stop-color="#000000"
       offset="100%" />
  </linearGradient>
  <linearGradient
     gradientTransform="rotate(-30)"
     spreadMethod="pad"
     y2="0.30000001"
     x2="-0.1"
     y1="1.2"
     x1="0.30000001"
     id="3d_gradient3-logo-0a64c244-8935-481d-8d92-3acb4c0f3d48">
    <stop
       id="stop175408"
       stop-opacity="1"
       stop-color="#ffffff"
       offset="0%" />
    <stop
       id="stop175410"
       stop-opacity="1"
       stop-color="#cccccc"
       offset="50%" />
    <stop
       id="stop175412"
       stop-opacity="1"
       stop-color="#000000"
       offset="100%" />
  </linearGradient>
  <g
     id="logo-group">
    <g
       id="logo-center">
      <g
         id="title"
         style="font-style:normal;font-weight:300;font-size:72px;line-height:1;font-family:'Montserrat Light Alt1';font-variant-ligatures:none;text-align:center;text-anchor:middle">
        <path
           id="path175483"
           style="font-style:normal;font-weight:300;font-size:72px;line-height:1;font-family:'Montserrat Light Alt1';font-variant-ligatures:none;text-align:center;text-anchor:middle"
           d="m 293.3045,-3.312 h -35.496 l 34.704,-44.496 V -50.4 h -39.384 v 3.312 h 34.344 l -34.776,44.496 V 0 h 40.608 z"
           stroke-width="0"
           stroke-linejoin="miter"
           stroke-miterlimit="2"
           fill="#d7651b"
           stroke="#d7651b"
           transform="translate(0.277315,387.948)" />
        <path
           id="path175485"
           style="font-style:normal;font-weight:300;font-size:72px;line-height:1;font-family:'Montserrat Light Alt1';font-variant-ligatures:none;text-align:center;text-anchor:middle"
           d="m 337.25937,-27.216 h -32.616 v 3.24 h 32.616 z m 0,-23.184 h -32.616 v 3.312 h 32.616 z m -32.616,47.088 V 0 h 32.616 v -3.312 z"
           stroke-width="0"
           stroke-linejoin="miter"
           stroke-miterlimit="2"
           fill="#d7651b"
           stroke="#d7651b"
           transform="translate(0.277315,387.948)" />
        <path
           id="path175487"
           style="font-style:normal;font-weight:300;font-size:72px;line-height:1;font-family:'Montserrat Light Alt1';font-variant-ligatures:none;text-align:center;text-anchor:middle"
           d="m 393.91775,-50.4 h -3.672 v 43.776 l -34.272,-43.776 h -3.096 V 0 h 3.672 V -43.776 L 390.89375,0 h 3.024 z"
           stroke-width="0"
           stroke-linejoin="miter"
           stroke-miterlimit="2"
           fill="#d7651b"
           stroke="#d7651b"
           transform="translate(0.277315,387.948)" />
        <path
           id="path175489"
           style="font-style:normal;font-weight:300;font-size:72px;line-height:1;font-family:'Montserrat Light Alt1';font-variant-ligatures:none;text-align:center;text-anchor:middle"
           d="m 419.43837,-2.952 c 3.96,2.232 8.424,3.312 13.392,3.312 3.60001,0 6.912,-0.576 10.008,-1.8 3.096,-1.152 5.76001,-2.952 7.92,-5.256 l -2.30399,-2.376 c -4.10401,4.032 -9.288,6.048 -15.48001,6.048 -4.24799,0 -8.064,-0.936 -11.51999,-2.88 -3.45601,-1.872 -6.192,-4.536 -8.13601,-7.92 -2.016,-3.384 -2.952,-7.2 -2.952,-11.376 0,-4.176 0.936,-7.92 2.952,-11.304 1.94401,-3.384 4.68,-6.048 8.13601,-7.992 3.45599,-1.872 7.272,-2.88 11.51999,-2.88 6.26401,0 11.448,2.016 15.48001,5.976 l 2.30399,-2.376 c -2.15999,-2.304 -4.824,-4.032 -7.848,-5.184 -3.096,-1.152 -6.47999,-1.8 -10.08,-1.8 -4.968,0 -9.432,1.152 -13.392,3.312 -3.95999,2.232 -7.05599,5.256 -9.36,9.144 -2.30399,3.888 -3.384,8.28 -3.384,13.104 0,4.896 1.08001,9.216 3.384,13.104 2.30401,3.888 5.40001,6.984 9.36,9.144 z"
           stroke-width="0"
           stroke-linejoin="miter"
           stroke-miterlimit="2"
           fill="#d7651b"
           stroke="#d7651b"
           transform="translate(0.277315,387.948)" />
        <path
           id="path175491"
           style="font-style:normal;font-weight:300;font-size:72px;line-height:1;font-family:'Montserrat Light Alt1';font-variant-ligatures:none;text-align:center;text-anchor:middle"
           d="m 489.69575,-17.64 c 3.744,-1.08 6.696,-2.952 8.712,-5.688 2.016,-2.736 3.096,-6.048 3.096,-10.08 0,-5.256 -1.8,-9.432 -5.4,-12.456 -3.6,-3.024 -8.568,-4.536 -14.904,-4.536 h -18.072 v 3.312 h 18.072 c 5.328,0 9.432,1.224 12.312,3.6 2.808,2.376 4.248,5.76 4.248,10.08 0,4.392 -1.44,7.776 -4.248,10.152 -2.88,2.376 -6.984,3.528 -12.312,3.528 h -18.072 V 0 h 3.672 v -16.488 h 14.4 c 1.44,0 3.096,-0.072 4.896,-0.36 L 498.11975,0 h 4.176 z"
           stroke-width="0"
           stroke-linejoin="miter"
           stroke-miterlimit="2"
           fill="#d7651b"
           stroke="#d7651b"
           transform="translate(0.277315,387.948)" />
        <path
           id="path175493"
           style="font-style:normal;font-weight:300;font-size:72px;line-height:1;font-family:'Montserrat Light Alt1';font-variant-ligatures:none;text-align:center;text-anchor:middle"
           d="m 533.45037,-50.4 h -3.672 L 506.59438,0 h 3.95999 L 531.57838,-46.368 552.67438,0 h 3.95999 z"
           stroke-width="0"
           stroke-linejoin="miter"
           stroke-miterlimit="2"
           fill="#d7651b"
           stroke="#d7651b"
           transform="translate(0.277315,387.948)" />
        <path
           id="path175495"
           style="font-style:normal;font-weight:300;font-size:72px;line-height:1;font-family:'Montserrat Light Alt1';font-variant-ligatures:none;text-align:center;text-anchor:middle"
           d="m 630.64475,-50.4 h -3.6 l -15.48,45.432 -15.696,-45.432 h -3.528 l -15.768,45.36 -15.336,-45.36 h -3.888 l 17.136,50.4 h 3.888 l 15.696,-45.216 15.624,45.216 h 3.888 z"
           stroke-width="0"
           stroke-linejoin="miter"
           stroke-miterlimit="2"
           fill="#d7651b"
           stroke="#d7651b"
           transform="translate(0.277315,387.948)" />
        <path
           id="path175497"
           style="font-style:normal;font-weight:300;font-size:72px;line-height:1;font-family:'Montserrat Light Alt1';font-variant-ligatures:none;text-align:center;text-anchor:middle"
           d="M 641.159,-50.4 V 0 h 32.688 V -3.312 H 644.831 V -50.4 Z"
           stroke-width="0"
           stroke-linejoin="miter"
           stroke-miterlimit="2"
           fill="#d7651b"
           stroke="#d7651b"
           transform="translate(0.277315,387.948)" />
        <path
           id="path175499"
           style="font-style:normal;font-weight:300;font-size:72px;line-height:1;font-family:'Montserrat Light Alt1';font-variant-ligatures:none;text-align:center;text-anchor:middle"
           d="m 715.9625,-27.216 h -32.616 v 3.24 h 32.616 z m 0,-23.184 h -32.616 v 3.312 h 32.616 z m -32.616,47.088 V 0 h 32.616 v -3.312 z"
           stroke-width="0"
           stroke-linejoin="miter"
           stroke-miterlimit="2"
           fill="#d7651b"
           stroke="#d7651b"
           transform="translate(0.277315,387.948)" />
        <path
           id="path175501"
           style="font-style:normal;font-weight:300;font-size:72px;line-height:1;font-family:'Montserrat Light Alt1';font-variant-ligatures:none;text-align:center;text-anchor:middle"
           d="m 758.14887,-17.64 c 3.744,-1.08 6.696,-2.952 8.712,-5.688 2.01601,-2.736 3.096,-6.048 3.096,-10.08 0,-5.256 -1.79999,-9.432 -5.4,-12.456 -3.6,-3.024 -8.568,-4.536 -14.904,-4.536 h -18.072 v 3.312 h 18.072 c 5.328,0 9.432,1.224 12.312,3.6 2.808,2.376 4.248,5.76 4.248,10.08 0,4.392 -1.44,7.776 -4.248,10.152 -2.88,2.376 -6.984,3.528 -12.312,3.528 h -18.072 V 0 h 3.67201 v -16.488 h 14.39999 c 1.44001,0 3.096,-0.072 4.896,-0.36 L 766.57287,0 h 4.176 z"
           stroke-width="0"
           stroke-linejoin="miter"
           stroke-miterlimit="2"
           fill="#d7651b"
           stroke="#d7651b"
           transform="translate(0.277315,387.948)" />
      </g>
    </g>
  </g>
</svg>
